<svg width="24" height="24" viewBox="0 0 24 24" fill="none" xmlns="http://www.w3.org/2000/svg">
<path d="M8.74976 3.99998L8.74976 15.9998C8.74976 16.5303 8.9473 17.039 9.29893 17.414C9.65056 17.7891 10.1275 17.9998 10.6248 17.9998H18.1248C18.622 17.9998 19.099 17.7891 19.4506 17.414C19.8022 17.039 19.9998 16.5303 19.9998 15.9998L19.9998 7.24194C19.9997 6.9755 19.9498 6.71175 19.8529 6.46619C19.756 6.22063 19.614 5.99819 19.4354 5.81195L16.3276 2.56999C15.9773 2.20466 15.5069 2.00007 15.0169 2H10.6248C10.1275 2 9.65056 2.21071 9.29893 2.58578C8.9473 2.96085 8.74976 3.46955 8.74976 3.99998V3.99998Z" stroke="#222222" stroke-width="1.5" stroke-linecap="round" stroke-linejoin="round"/>
<path d="M16.25 18L16.25 20C16.25 20.5305 16.0525 21.0392 15.7008 21.4142C15.3492 21.7893 14.8723 22 14.375 22H6.875C6.37772 22 5.90081 21.7893 5.54917 21.4142C5.19754 21.0392 5 20.5305 5 20L5 9.00016C5 8.46973 5.19754 7.96103 5.54917 7.58596C5.90081 7.21089 6.37772 7.00018 6.875 7.00018H8.75" stroke="#222222" stroke-width="1.5" stroke-linecap="round" stroke-linejoin="round"/>
</svg>
