<svg width="24" height="24" viewBox="0 0 24 24" fill="none" xmlns="http://www.w3.org/2000/svg">
<g clip-path="url(#clip0_1_3641)">
<path d="M3.73335 2.66666C3.45046 2.66666 3.17915 2.77904 2.97911 2.97908C2.77907 3.17911 2.66669 3.45043 2.66669 3.73332V7.99999H8.00002V2.66666H3.73335ZM6.66669 6.66666H4.00002V3.99999H6.66669V6.66666Z" fill="#222222"/>
<path d="M2.66669 20.2667C2.66669 20.5496 2.77907 20.8209 2.97911 21.0209C3.17915 21.221 3.45046 21.3333 3.73335 21.3333H8.00002V16H2.66669V20.2667ZM4.00002 17.3333H6.66669V20H4.00002V17.3333Z" fill="#222222"/>
<path d="M16 21.3333H20.2667C20.5496 21.3333 20.8209 21.221 21.0209 21.0209C21.221 20.8209 21.3333 20.5496 21.3333 20.2667V16H16V21.3333ZM17.3333 17.3333H20V20H17.3333V17.3333Z" fill="#222222"/>
<path d="M20.2667 2.66666H16V7.99999H21.3333V3.73332C21.3333 3.45043 21.221 3.17911 21.0209 2.97908C20.8209 2.77904 20.5496 2.66666 20.2667 2.66666ZM20 6.66666H17.3333V3.99999H20V6.66666Z" fill="#222222"/>
<path d="M13.3334 6.66668V5.33334H10.6667V8.00001H12V6.66668H13.3334Z" fill="#222222"/>
<path d="M8 8H9.33333V9.33333H8V8Z" fill="#222222"/>
<path d="M9.33331 9.33334H12V10.6667H9.33331V9.33334Z" fill="#222222"/>
<path d="M13.3333 3.99999V5.33332H14.6666V2.66666H9.33331V5.33332H10.6666V3.99999H13.3333Z" fill="#222222"/>
<path d="M2.66669 9.33334H4.00002V12H2.66669V9.33334Z" fill="#222222"/>
<path d="M8.00002 10.6667V12H6.66669V9.33334H5.33335V12H4.00002V13.3333H2.66669V14.6667H5.33335V13.3333H6.66669V14.6667H8.00002V13.3333H9.33335V10.6667H8.00002Z" fill="#222222"/>
<path d="M13.3333 10.6667H14.6667V12H16V10.6667H17.3333V9.33332H14.6667V6.66666H13.3333V7.99999H12V9.33332H13.3333V10.6667Z" fill="#222222"/>
<path d="M12 20H9.33331V21.3333H14.6666V20H13.3333V18.6667H12V20Z" fill="#222222"/>
<path d="M14.6667 13.3333V12H13.3334V10.6667H12V12H10.6667V13.3333H12V14.6667H13.3334V13.3333H14.6667Z" fill="#222222"/>
<path d="M20 13.3333H21.3333V14.6667H20V13.3333Z" fill="#222222"/>
<path d="M14.6667 13.3333H18.6667V14.6667H14.6667V13.3333Z" fill="#222222"/>
<path d="M20 9.33334H18.6666V10.6667H17.3333V12H18.6666V13.3333H20V12H21.3333V10.6667H20V9.33334Z" fill="#222222"/>
<path d="M13.3333 14.6667H14.6666V18.6667H13.3333V14.6667Z" fill="#222222"/>
<path d="M9.33331 18.6667H10.6666V17.3333H12V16H10.6666V13.3333H9.33331V18.6667Z" fill="#222222"/>
</g>
<defs>
<clipPath id="clip0_1_3641">
<rect width="24" height="24" fill="white"/>
</clipPath>
</defs>
</svg>
