<svg width="24" height="24" viewBox="0 0 24 24" fill="none" xmlns="http://www.w3.org/2000/svg">
<path d="M15.3937 9.39375L12.7969 12L15.3937 14.6063C15.4455 14.658 15.4865 14.7193 15.5145 14.7869C15.5424 14.8545 15.5568 14.9269 15.5568 15C15.5568 15.0731 15.5424 15.1455 15.5145 15.2131C15.4865 15.2807 15.4455 15.342 15.3937 15.3937C15.342 15.4455 15.2807 15.4865 15.2131 15.5145C15.1455 15.5424 15.0731 15.5568 15 15.5568C14.9269 15.5568 14.8545 15.5424 14.7869 15.5145C14.7193 15.4865 14.658 15.4455 14.6063 15.3937L12 12.7969L9.39375 15.3937C9.28932 15.4982 9.14768 15.5568 9 15.5568C8.85232 15.5568 8.71068 15.4982 8.60625 15.3937C8.50182 15.2893 8.44315 15.1477 8.44315 15C8.44315 14.8523 8.50182 14.7107 8.60625 14.6063L11.2031 12L8.60625 9.39375C8.50182 9.28932 8.44315 9.14768 8.44315 9C8.44315 8.85232 8.50182 8.71068 8.60625 8.60625C8.71068 8.50182 8.85232 8.44315 9 8.44315C9.14768 8.44315 9.28932 8.50182 9.39375 8.60625L12 11.2031L14.6063 8.60625C14.7107 8.50182 14.8523 8.44315 15 8.44315C15.1477 8.44315 15.2893 8.50182 15.3937 8.60625C15.4982 8.71068 15.5568 8.85232 15.5568 9C15.5568 9.14768 15.4982 9.28932 15.3937 9.39375ZM20.8125 4.5V19.5C20.8125 19.8481 20.6742 20.1819 20.4281 20.4281C20.1819 20.6742 19.8481 20.8125 19.5 20.8125H4.5C4.1519 20.8125 3.81806 20.6742 3.57192 20.4281C3.32578 20.1819 3.1875 19.8481 3.1875 19.5V4.5C3.1875 4.1519 3.32578 3.81806 3.57192 3.57192C3.81806 3.32578 4.1519 3.1875 4.5 3.1875H19.5C19.8481 3.1875 20.1819 3.32578 20.4281 3.57192C20.6742 3.81806 20.8125 4.1519 20.8125 4.5ZM19.6875 4.5C19.6875 4.45027 19.6677 4.40258 19.6326 4.36742C19.5974 4.33225 19.5497 4.3125 19.5 4.3125H4.5C4.45027 4.3125 4.40258 4.33225 4.36742 4.36742C4.33225 4.40258 4.3125 4.45027 4.3125 4.5V19.5C4.3125 19.5497 4.33225 19.5974 4.36742 19.6326C4.40258 19.6677 4.45027 19.6875 4.5 19.6875H19.5C19.5497 19.6875 19.5974 19.6677 19.6326 19.6326C19.6677 19.5974 19.6875 19.5497 19.6875 19.5V4.5Z" fill="#222222"/>
</svg>
