<svg width="300" height="88" viewBox="0 0 300 88" fill="none" xmlns="http://www.w3.org/2000/svg">
<path d="M88 27.3333L98 27.3333C100.189 27.3333 102.356 27.7644 104.378 28.602C106.4 29.4396 108.237 30.6672 109.785 32.2149C111.333 33.7625 112.56 35.5998 113.398 37.6219C114.236 39.644 114.667 41.8113 114.667 44C114.667 46.1887 114.236 48.356 113.398 50.3781C112.56 52.4001 111.333 54.2375 109.785 55.7851C108.237 57.3328 106.4 58.5604 104.378 59.398C102.356 60.2356 100.189 60.6667 98 60.6667H88M68 60.6667H58C55.8113 60.6667 53.644 60.2356 51.622 59.398C49.5999 58.5604 47.7625 57.3328 46.2149 55.7851C43.0893 52.6595 41.3333 48.4203 41.3333 44C41.3333 39.5797 43.0893 35.3405 46.2149 32.2149C49.3405 29.0893 53.5797 27.3333 58 27.3333H68" stroke="white" stroke-width="2" stroke-linecap="round" stroke-linejoin="round"/>
<path d="M64.6667 44H91.3333" stroke="white" stroke-width="2" stroke-linecap="round" stroke-linejoin="round"/>
<path d="M160 27.3333L170 27.3333C172.189 27.3333 174.356 27.7644 176.378 28.602C178.4 29.4396 180.237 30.6672 181.785 32.2149C183.333 33.7625 184.56 35.5998 185.398 37.6219C186.236 39.644 186.667 41.8113 186.667 44C186.667 46.1887 186.236 48.356 185.398 50.3781C184.56 52.4001 183.333 54.2375 181.785 55.7851C180.237 57.3328 178.4 58.5604 176.378 59.398C174.356 60.2356 172.189 60.6667 170 60.6667H160M140 60.6667H130C127.811 60.6667 125.644 60.2356 123.622 59.398C121.6 58.5604 119.763 57.3328 118.215 55.7851C115.089 52.6595 113.333 48.4203 113.333 44C113.333 39.5797 115.089 35.3405 118.215 32.2149C121.341 29.0893 125.58 27.3333 130 27.3333H140" stroke="white" stroke-width="2" stroke-linecap="round" stroke-linejoin="round"/>
<path d="M136.667 44H163.333" stroke="white" stroke-width="2" stroke-linecap="round" stroke-linejoin="round"/>
<path d="M232 27.3333L242 27.3333C244.189 27.3333 246.356 27.7644 248.378 28.602C250.4 29.4396 252.237 30.6672 253.785 32.2149C255.333 33.7625 256.56 35.5998 257.398 37.6219C258.236 39.644 258.667 41.8113 258.667 44C258.667 46.1887 258.236 48.356 257.398 50.3781C256.56 52.4001 255.333 54.2375 253.785 55.7851C252.237 57.3328 250.4 58.5604 248.378 59.398C246.356 60.2356 244.189 60.6667 242 60.6667H232M212 60.6667H202C199.811 60.6667 197.644 60.2356 195.622 59.398C193.6 58.5604 191.763 57.3328 190.215 55.7851C187.089 52.6595 185.333 48.4203 185.333 44C185.333 39.5797 187.089 35.3405 190.215 32.2149C193.341 29.0893 197.58 27.3333 202 27.3333H212" stroke="white" stroke-width="2" stroke-linecap="round" stroke-linejoin="round"/>
<path d="M208.667 44H235.333" stroke="white" stroke-width="2" stroke-linecap="round" stroke-linejoin="round"/>
</svg>
