<svg width="30" height="30" viewBox="0 0 30 30" fill="none" xmlns="http://www.w3.org/2000/svg">
<path fill-rule="evenodd" clip-rule="evenodd" d="M15 30C23.2843 30 30 23.2843 30 15C30 6.71573 23.2843 0 15 0C6.71573 0 0 6.71573 0 15C0 23.2843 6.71573 30 15 30Z" fill="#EAC81F"/>
<path d="M18.3023 8.57454L16.5891 8.57172C14.6643 8.57172 13.4204 9.88262 13.4204 11.9116V13.4515H11.6979C11.549 13.4515 11.4285 13.5755 11.4285 13.7284V15.9595C11.4285 16.1124 11.5491 16.2362 11.6979 16.2362H13.4204V21.8661C13.4204 22.019 13.541 22.1428 13.6898 22.1428H15.9373C16.0862 22.1428 16.2067 22.0189 16.2067 21.8661V16.2362H18.2208C18.3697 16.2362 18.4902 16.1124 18.4902 15.9595L18.4911 13.7284C18.4911 13.6549 18.4626 13.5846 18.4122 13.5327C18.3617 13.4807 18.293 13.4515 18.2215 13.4515H16.2067V12.1461C16.2067 11.5187 16.3523 11.2002 17.1479 11.2002L18.3021 11.1997C18.4508 11.1997 18.5713 11.0758 18.5713 10.923V8.85126C18.5713 8.69864 18.4509 8.57482 18.3023 8.57454Z" fill="#121212"/>
</svg>
