<svg width="32" height="32" viewBox="0 0 32 32" fill="none" xmlns="http://www.w3.org/2000/svg">
<mask id="path-1-inside-1_28_4798" fill="white">
<path fill-rule="evenodd" clip-rule="evenodd" d="M27.6666 9.33334C27.6666 9.59856 27.5612 9.85291 27.3737 10.0405C27.1862 10.228 26.9318 10.3333 26.6666 10.3333H5.33325C5.06804 10.3333 4.81368 10.228 4.62615 10.0405C4.43861 9.85291 4.33325 9.59856 4.33325 9.33334C4.33325 9.06813 4.43861 8.81377 4.62615 8.62624C4.81368 8.4387 5.06804 8.33334 5.33325 8.33334H26.6666C26.9318 8.33334 27.1862 8.4387 27.3737 8.62624C27.5612 8.81377 27.6666 9.06813 27.6666 9.33334ZM27.6666 16C27.6666 16.2652 27.5612 16.5196 27.3737 16.7071C27.1862 16.8947 26.9318 17 26.6666 17H5.33325C5.06804 17 4.81368 16.8947 4.62615 16.7071C4.43861 16.5196 4.33325 16.2652 4.33325 16C4.33325 15.7348 4.43861 15.4804 4.62615 15.2929C4.81368 15.1054 5.06804 15 5.33325 15H26.6666C26.9318 15 27.1862 15.1054 27.3737 15.2929C27.5612 15.4804 27.6666 15.7348 27.6666 16ZM27.6666 22.6667C27.6666 22.9319 27.5612 23.1862 27.3737 23.3738C27.1862 23.5613 26.9318 23.6667 26.6666 23.6667H5.33325C5.06804 23.6667 4.81368 23.5613 4.62615 23.3738C4.43861 23.1862 4.33325 22.9319 4.33325 22.6667C4.33325 22.4015 4.43861 22.1471 4.62615 21.9596C4.81368 21.772 5.06804 21.6667 5.33325 21.6667H26.6666C26.9318 21.6667 27.1862 21.772 27.3737 21.9596C27.5612 22.1471 27.6666 22.4015 27.6666 22.6667Z"/>
</mask>
<path fill-rule="evenodd" clip-rule="evenodd" d="M27.6666 9.33334C27.6666 9.59856 27.5612 9.85291 27.3737 10.0405C27.1862 10.228 26.9318 10.3333 26.6666 10.3333H5.33325C5.06804 10.3333 4.81368 10.228 4.62615 10.0405C4.43861 9.85291 4.33325 9.59856 4.33325 9.33334C4.33325 9.06813 4.43861 8.81377 4.62615 8.62624C4.81368 8.4387 5.06804 8.33334 5.33325 8.33334H26.6666C26.9318 8.33334 27.1862 8.4387 27.3737 8.62624C27.5612 8.81377 27.6666 9.06813 27.6666 9.33334ZM27.6666 16C27.6666 16.2652 27.5612 16.5196 27.3737 16.7071C27.1862 16.8947 26.9318 17 26.6666 17H5.33325C5.06804 17 4.81368 16.8947 4.62615 16.7071C4.43861 16.5196 4.33325 16.2652 4.33325 16C4.33325 15.7348 4.43861 15.4804 4.62615 15.2929C4.81368 15.1054 5.06804 15 5.33325 15H26.6666C26.9318 15 27.1862 15.1054 27.3737 15.2929C27.5612 15.4804 27.6666 15.7348 27.6666 16ZM27.6666 22.6667C27.6666 22.9319 27.5612 23.1862 27.3737 23.3738C27.1862 23.5613 26.9318 23.6667 26.6666 23.6667H5.33325C5.06804 23.6667 4.81368 23.5613 4.62615 23.3738C4.43861 23.1862 4.33325 22.9319 4.33325 22.6667C4.33325 22.4015 4.43861 22.1471 4.62615 21.9596C4.81368 21.772 5.06804 21.6667 5.33325 21.6667H26.6666C26.9318 21.6667 27.1862 21.772 27.3737 21.9596C27.5612 22.1471 27.6666 22.4015 27.6666 22.6667Z" fill="white"/>
<path d="M5.33325 10.3333V13.3333V10.3333ZM5.33325 8.33334V5.33334V8.33334ZM24.6666 9.33334C24.6666 8.80292 24.8773 8.29421 25.2524 7.91913L29.495 12.1618C30.2452 11.4116 30.6666 10.3942 30.6666 9.33334H24.6666ZM25.2524 7.91913C25.6274 7.54405 26.1362 7.33334 26.6666 7.33334V13.3333C27.7274 13.3333 28.7449 12.9119 29.495 12.1618L25.2524 7.91913ZM26.6666 7.33334H5.33325V13.3333H26.6666V7.33334ZM5.33325 7.33334C5.86368 7.33334 6.37239 7.54406 6.74747 7.91913L2.50482 12.1618C3.25497 12.9119 4.27239 13.3333 5.33325 13.3333V7.33334ZM6.74747 7.91913C7.12254 8.2942 7.33325 8.80291 7.33325 9.33334H1.33325C1.33325 10.3942 1.75468 11.4116 2.50482 12.1618L6.74747 7.91913ZM7.33325 9.33334C7.33325 9.86378 7.12254 10.3725 6.74747 10.7476L2.50482 6.50492C1.75468 7.25506 1.33325 8.27248 1.33325 9.33334H7.33325ZM6.74747 10.7476C6.37239 11.1226 5.86368 11.3333 5.33325 11.3333V5.33334C4.27239 5.33334 3.25497 5.75477 2.50482 6.50492L6.74747 10.7476ZM5.33325 11.3333H26.6666V5.33334H5.33325V11.3333ZM26.6666 11.3333C26.1362 11.3333 25.6274 11.1226 25.2524 10.7476L29.495 6.50492C28.7449 5.75477 27.7274 5.33334 26.6666 5.33334V11.3333ZM25.2524 10.7476C24.8773 10.3725 24.6666 9.86377 24.6666 9.33334H30.6666C30.6666 8.27248 30.2452 7.25507 29.495 6.50492L25.2524 10.7476ZM24.6666 16C24.6666 15.4696 24.8773 14.9609 25.2524 14.5858L29.495 18.8284C30.2452 18.0783 30.6666 17.0609 30.6666 16H24.6666ZM25.2524 14.5858C25.6274 14.2107 26.1362 14 26.6666 14V20C27.7275 20 28.7449 19.5786 29.495 18.8284L25.2524 14.5858ZM26.6666 14H5.33325V20H26.6666V14ZM5.33325 14C5.86369 14 6.3724 14.2107 6.74747 14.5858L2.50482 18.8284C3.25497 19.5786 4.27238 20 5.33325 20V14ZM6.74747 14.5858C7.12254 14.9609 7.33325 15.4696 7.33325 16H1.33325C1.33325 17.0609 1.75468 18.0783 2.50482 18.8284L6.74747 14.5858ZM7.33325 16C7.33325 16.5304 7.12254 17.0392 6.74747 17.4142L2.50482 13.1716C1.75468 13.9217 1.33325 14.9391 1.33325 16H7.33325ZM6.74747 17.4142C6.3724 17.7893 5.86369 18 5.33325 18V12C4.27238 12 3.25497 12.4214 2.50482 13.1716L6.74747 17.4142ZM5.33325 18H26.6666V12H5.33325V18ZM26.6666 18C26.1362 18 25.6274 17.7893 25.2524 17.4142L29.495 13.1716C28.7449 12.4214 27.7275 12 26.6666 12V18ZM25.2524 17.4142C24.8773 17.0391 24.6666 16.5304 24.6666 16H30.6666C30.6666 14.9391 30.2452 13.9217 29.495 13.1716L25.2524 17.4142ZM24.6666 22.6667C24.6666 22.1363 24.8773 21.6275 25.2524 21.2525L29.495 25.4951C30.2452 24.745 30.6666 23.7275 30.6666 22.6667H24.6666ZM25.2524 21.2525C25.6275 20.8774 26.1362 20.6667 26.6666 20.6667V26.6667C27.7274 26.6667 28.7449 26.2453 29.495 25.4951L25.2524 21.2525ZM26.6666 20.6667H5.33325V26.6667H26.6666V20.6667ZM5.33325 20.6667C5.86368 20.6667 6.37239 20.8774 6.74747 21.2525L2.50482 25.4951C3.25497 26.2453 4.27239 26.6667 5.33325 26.6667V20.6667ZM6.74747 21.2525C7.12254 21.6275 7.33325 22.1362 7.33325 22.6667H1.33325C1.33325 23.7275 1.75468 24.745 2.50482 25.4951L6.74747 21.2525ZM7.33325 22.6667C7.33325 23.1971 7.12254 23.7058 6.74747 24.0809L2.50482 19.8382C1.75468 20.5884 1.33325 21.6058 1.33325 22.6667H7.33325ZM6.74747 24.0809C6.37239 24.456 5.86368 24.6667 5.33325 24.6667V18.6667C4.27239 18.6667 3.25497 19.0881 2.50482 19.8382L6.74747 24.0809ZM5.33325 24.6667H26.6666V18.6667H5.33325V24.6667ZM26.6666 24.6667C26.1362 24.6667 25.6275 24.456 25.2524 24.0809L29.495 19.8382C28.7449 19.0881 27.7274 18.6667 26.6666 18.6667V24.6667ZM25.2524 24.0809C24.8773 23.7058 24.6666 23.1971 24.6666 22.6667H30.6666C30.6666 21.6058 30.2452 20.5884 29.495 19.8382L25.2524 24.0809Z" fill="white" mask="url(#path-1-inside-1_28_4798)"/>
</svg>
