<svg width="40" height="40" viewBox="0 0 40 40" fill="none" xmlns="http://www.w3.org/2000/svg">
<path d="M20 15C23.2216 15 25.8333 12.3884 25.8333 9.16671C25.8333 5.94505 23.2216 3.33337 20 3.33337C16.7783 3.33337 14.1666 5.94505 14.1666 9.16671C14.1666 12.3884 16.7783 15 20 15Z" fill="url(#paint0_linear_1_574)" stroke="url(#paint1_linear_1_574)" stroke-width="4" stroke-linecap="round" stroke-linejoin="round"/>
<path d="M3.33331 34.1667C3.33331 26.8025 10.0491 20.8334 18.3333 20.8334" stroke="url(#paint2_linear_1_574)" stroke-width="4" stroke-linecap="round" stroke-linejoin="round"/>
<path d="M26.5416 23.3334C24.77 23.3334 23.3333 25.0075 23.3333 27.0717C23.3333 30.8109 27.125 34.2092 29.1666 35C31.2083 34.2092 35 30.8109 35 27.0717C35 25.0084 33.5633 23.3334 31.7916 23.3334C30.7066 23.3334 29.7475 23.9609 29.1666 24.9217C28.5858 23.9609 27.6266 23.3334 26.5416 23.3334Z" fill="url(#paint3_linear_1_574)" stroke="url(#paint4_linear_1_574)" stroke-width="4" stroke-linecap="round" stroke-linejoin="round"/>
<defs>
<linearGradient id="paint0_linear_1_574" x1="20" y1="3.33337" x2="20" y2="15" gradientUnits="userSpaceOnUse">
<stop stop-color="#E0FF4F"/>
<stop offset="1" stop-color="white"/>
</linearGradient>
<linearGradient id="paint1_linear_1_574" x1="20" y1="3.33337" x2="20" y2="15" gradientUnits="userSpaceOnUse">
<stop stop-color="#E0FF4F"/>
<stop offset="1" stop-color="white"/>
</linearGradient>
<linearGradient id="paint2_linear_1_574" x1="10.8333" y1="20.8334" x2="10.8333" y2="34.1667" gradientUnits="userSpaceOnUse">
<stop stop-color="#E0FF4F"/>
<stop offset="1" stop-color="white"/>
</linearGradient>
<linearGradient id="paint3_linear_1_574" x1="29.1666" y1="23.3334" x2="29.1666" y2="35" gradientUnits="userSpaceOnUse">
<stop stop-color="#E0FF4F"/>
<stop offset="1" stop-color="white"/>
</linearGradient>
<linearGradient id="paint4_linear_1_574" x1="29.1666" y1="23.3334" x2="29.1666" y2="35" gradientUnits="userSpaceOnUse">
<stop stop-color="#E0FF4F"/>
<stop offset="1" stop-color="white"/>
</linearGradient>
</defs>
</svg>
