<svg width="30" height="30" viewBox="0 0 30 30" fill="none" xmlns="http://www.w3.org/2000/svg">
<path fill-rule="evenodd" clip-rule="evenodd" d="M15 30C23.2843 30 30 23.2843 30 15C30 6.71573 23.2843 0 15 0C6.71573 0 0 6.71573 0 15C0 23.2843 6.71573 30 15 30Z" fill="#EAC81F"/>
<path fill-rule="evenodd" clip-rule="evenodd" d="M18.5374 6.00018H11.3197C8.38642 6.00018 6 8.38664 6 11.32V18.5378C6 21.4711 8.38642 23.8576 11.3197 23.8576H18.5374C21.4707 23.8576 23.8571 21.4711 23.8571 18.5378V11.32C23.8571 8.38664 21.4707 6.00018 18.5374 6.00018ZM22.0607 18.5378C22.0607 20.4837 20.4832 22.0612 18.5374 22.0612H11.3197C9.37384 22.0612 7.79639 20.4837 7.79639 18.5378V11.32C7.79639 9.37407 9.37384 7.79661 11.3197 7.79661H18.5374C20.4832 7.79661 22.0607 9.37407 22.0607 11.32V18.5378ZM10.2756 14.8869C10.2756 12.3443 12.3441 10.2758 14.8866 10.2758C17.4291 10.2758 19.4976 12.3443 19.4976 14.8869C19.4976 17.4295 17.4291 19.498 14.8866 19.498C12.3441 19.498 10.2756 17.4294 10.2756 14.8869ZM14.8866 17.7047C13.3305 17.7047 12.0691 16.4433 12.0691 14.8871C12.0691 13.331 13.3305 12.0695 14.8866 12.0695C16.4427 12.0695 17.7041 13.331 17.7041 14.8871C17.7041 16.4432 16.4426 17.7047 14.8866 17.7047ZM20.5875 10.3599C20.5875 10.9618 20.0995 11.4497 19.4976 11.4497C18.8957 11.4497 18.4077 10.9618 18.4077 10.3599C18.4077 9.75806 18.8957 9.27014 19.4976 9.27014C20.0995 9.27014 20.5875 9.75806 20.5875 10.3599Z" fill="#121212"/>
</svg>
