<svg width="40" height="41" viewBox="0 0 40 41" fill="none" xmlns="http://www.w3.org/2000/svg">
<path d="M31.6666 5.50004L21.6666 15.5L25 18.8334L36.6666 7.16671V5.50004M20 21.3334C19.779 21.3334 19.567 21.2456 19.4107 21.0893C19.2544 20.933 19.1666 20.7211 19.1666 20.5C19.1666 20.279 19.2544 20.0671 19.4107 19.9108C19.567 19.7545 19.779 19.6667 20 19.6667C20.221 19.6667 20.433 19.7545 20.5892 19.9108C20.7455 20.0671 20.8333 20.279 20.8333 20.5C20.8333 20.7211 20.7455 20.933 20.5892 21.0893C20.433 21.2456 20.221 21.3334 20 21.3334ZM9.99998 33.8334C9.11592 33.8334 8.26808 33.4822 7.64296 32.8571C7.01784 32.2319 6.66665 31.3841 6.66665 30.5C6.66665 29.616 7.01784 28.7681 7.64296 28.143C8.26808 27.5179 9.11592 27.1667 9.99998 27.1667C10.884 27.1667 11.7319 27.5179 12.357 28.143C12.9821 28.7681 13.3333 29.616 13.3333 30.5C13.3333 31.3841 12.9821 32.2319 12.357 32.8571C11.7319 33.4822 10.884 33.8334 9.99998 33.8334ZM9.99998 13.8334C9.11592 13.8334 8.26808 13.4822 7.64296 12.8571C7.01784 12.2319 6.66665 11.3841 6.66665 10.5C6.66665 9.61599 7.01784 8.76814 7.64296 8.14302C8.26808 7.5179 9.11592 7.16671 9.99998 7.16671C10.884 7.16671 11.7319 7.5179 12.357 8.14302C12.9821 8.76814 13.3333 9.61599 13.3333 10.5C13.3333 11.3841 12.9821 12.2319 12.357 12.8571C11.7319 13.4822 10.884 13.8334 9.99998 13.8334ZM16.0666 13.2334C16.45 12.4 16.6666 11.4834 16.6666 10.5C16.6666 8.73193 15.9643 7.03624 14.714 5.786C13.4638 4.53575 11.7681 3.83337 9.99998 3.83337C8.23187 3.83337 6.53618 4.53575 5.28593 5.786C4.03569 7.03624 3.33331 8.73193 3.33331 10.5C3.33331 12.2682 4.03569 13.9638 5.28593 15.2141C6.53618 16.4643 8.23187 17.1667 9.99998 17.1667C10.9833 17.1667 11.9 16.95 12.7333 16.5667L16.6666 20.5L12.7333 24.4334C11.9 24.05 10.9833 23.8334 9.99998 23.8334C8.23187 23.8334 6.53618 24.5358 5.28593 25.786C4.03569 27.0362 3.33331 28.7319 3.33331 30.5C3.33331 32.2682 4.03569 33.9638 5.28593 35.2141C6.53618 36.4643 8.23187 37.1667 9.99998 37.1667C11.7681 37.1667 13.4638 36.4643 14.714 35.2141C15.9643 33.9638 16.6666 32.2682 16.6666 30.5C16.6666 29.5167 16.45 28.6 16.0666 27.7667L20 23.8334L31.6666 35.5H36.6666V33.8334L16.0666 13.2334Z" fill="url(#paint0_linear_1_566)"/>
<defs>
<linearGradient id="paint0_linear_1_566" x1="20" y1="3.83337" x2="20" y2="37.1667" gradientUnits="userSpaceOnUse">
<stop stop-color="#E0FF4F"/>
<stop offset="1" stop-color="white"/>
</linearGradient>
</defs>
</svg>
