<svg width="40" height="40" viewBox="0 0 40 40" fill="none" xmlns="http://www.w3.org/2000/svg">
<path d="M26.6667 28.3333V26.6667H21.6667V21.6667H26.6667V25H30V28.3333H28.3333V31.6667H25V35H21.6667V30H25V28.3333H26.6667ZM35 35H28.3333V31.6667H31.6667V28.3333H35V35ZM5 5H18.3333V18.3333H5V5ZM21.6667 5H35V18.3333H21.6667V5ZM5 21.6667H18.3333V35H5V21.6667ZM30 21.6667H35V25H30V21.6667ZM10 10V13.3333H13.3333V10H10ZM10 26.6667V30H13.3333V26.6667H10ZM26.6667 10V13.3333H30V10H26.6667Z" fill="url(#paint0_linear_1_581)"/>
<defs>
<linearGradient id="paint0_linear_1_581" x1="20" y1="5" x2="20" y2="35" gradientUnits="userSpaceOnUse">
<stop stop-color="#E0FF4F"/>
<stop offset="1" stop-color="white"/>
</linearGradient>
</defs>
</svg>
