<svg width="30" height="30" viewBox="0 0 30 30" fill="none" xmlns="http://www.w3.org/2000/svg">
<path fill-rule="evenodd" clip-rule="evenodd" d="M15 30C23.2843 30 30 23.2843 30 15C30 6.71573 23.2843 0 15 0C6.71573 0 0 6.71573 0 15C0 23.2843 6.71573 30 15 30Z" fill="#EAC81F"/>
<mask id="path-2-inside-1_1_522" fill="white">
<path d="M12.3333 8.33331H7.66667L13.1733 15.6766L7.96667 21.6666H9.73334L13.992 16.7673L17.6667 21.6666H22.3333L16.5947 14.0146L21.5333 8.33331H19.7667L15.776 12.924L12.3333 8.33331ZM18.3333 20.3333L10.3333 9.66665H11.6667L19.6667 20.3333H18.3333Z"/>
</mask>
<path d="M12.3333 8.33331H7.66667L13.1733 15.6766L7.96667 21.6666H9.73334L13.992 16.7673L17.6667 21.6666H22.3333L16.5947 14.0146L21.5333 8.33331H19.7667L15.776 12.924L12.3333 8.33331ZM18.3333 20.3333L10.3333 9.66665H11.6667L19.6667 20.3333H18.3333Z" fill="#121212"/>
<path d="M12.3333 8.33331L13.9334 7.13339L13.3334 6.33331H12.3333V8.33331ZM7.66667 8.33331V6.33331H3.66703L6.06658 9.5332L7.66667 8.33331ZM13.1733 15.6766L14.6828 16.9887L15.7427 15.7693L14.7734 14.4768L13.1733 15.6766ZM7.96667 21.6666L6.45721 20.3546L3.57827 23.6666H7.96667V21.6666ZM9.73334 21.6666V23.6666H10.6448L11.2428 22.9787L9.73334 21.6666ZM13.992 16.7673L15.592 15.5673L14.1066 13.5869L12.4825 15.4552L13.992 16.7673ZM17.6667 21.6666L16.0667 22.8667L16.6667 23.6666H17.6667V21.6666ZM22.3333 21.6666V23.6666H26.3332L23.9334 20.4667L22.3333 21.6666ZM16.5947 14.0146L15.0852 12.7025L14.0252 13.922L14.9946 15.2146L16.5947 14.0146ZM21.5333 8.33331L23.0428 9.64542L25.9219 6.33331H21.5333V8.33331ZM19.7667 8.33331V6.33331H18.8552L18.2573 7.02118L19.7667 8.33331ZM15.776 12.924L14.1759 14.1239L15.6612 16.1045L17.2854 14.2361L15.776 12.924ZM18.3333 20.3333L16.7333 21.5333L17.3333 22.3333H18.3333V20.3333ZM10.3333 9.66665V7.66665H6.33334L8.73334 10.8666L10.3333 9.66665ZM11.6667 9.66665L13.2667 8.46665L12.6667 7.66665H11.6667V9.66665ZM19.6667 20.3333V22.3333H23.6667L21.2667 19.1333L19.6667 20.3333ZM12.3333 6.33331H7.66667V10.3333H12.3333V6.33331ZM6.06658 9.5332L11.5733 16.8765L14.7734 14.4768L9.26676 7.13343L6.06658 9.5332ZM11.6639 14.3646L6.45721 20.3546L9.47614 22.9787L14.6828 16.9887L11.6639 14.3646ZM7.96667 23.6666H9.73334V19.6666H7.96667V23.6666ZM11.2428 22.9787L15.5015 18.0794L12.4825 15.4552L8.22388 20.3546L11.2428 22.9787ZM12.392 17.9673L16.0667 22.8667L19.2666 20.4666L15.592 15.5673L12.392 17.9673ZM17.6667 23.6666H22.3333V19.6666H17.6667V23.6666ZM23.9334 20.4667L18.1947 12.8147L14.9946 15.2146L20.7333 22.8666L23.9334 20.4667ZM18.1041 15.3268L23.0428 9.64542L20.0239 7.0212L15.0852 12.7025L18.1041 15.3268ZM21.5333 6.33331H19.7667V10.3333H21.5333V6.33331ZM18.2573 7.02118L14.2666 11.6118L17.2854 14.2361L21.2761 9.64544L18.2573 7.02118ZM17.3761 11.7241L13.9334 7.13339L10.7333 9.53324L14.1759 14.1239L17.3761 11.7241ZM19.9333 19.1333L11.9333 8.46665L8.73334 10.8666L16.7333 21.5333L19.9333 19.1333ZM10.3333 11.6666H11.6667V7.66665H10.3333V11.6666ZM10.0667 10.8666L18.0667 21.5333L21.2667 19.1333L13.2667 8.46665L10.0667 10.8666ZM19.6667 18.3333H18.3333V22.3333H19.6667V18.3333Z" fill="#121212" mask="url(#path-2-inside-1_1_522)"/>
</svg>
