<svg width="32" height="32" viewBox="0 0 32 32" fill="none" xmlns="http://www.w3.org/2000/svg">
<circle cx="16" cy="16" r="16" fill="#222222"/>
<mask id="path-2-inside-1_206_177" fill="white">
<path d="M13.3333 9.33337H8.66663L14.1733 16.6767L8.96663 22.6667H10.7333L14.992 17.7674L18.6666 22.6667H23.3333L17.5946 15.0147L22.5333 9.33337H20.7666L16.776 13.924L13.3333 9.33337ZM19.3333 21.3334L11.3333 10.6667H12.6666L20.6666 21.3334H19.3333Z"/>
</mask>
<path d="M13.3333 9.33337H8.66663L14.1733 16.6767L8.96663 22.6667H10.7333L14.992 17.7674L18.6666 22.6667H23.3333L17.5946 15.0147L22.5333 9.33337H20.7666L16.776 13.924L13.3333 9.33337ZM19.3333 21.3334L11.3333 10.6667H12.6666L20.6666 21.3334H19.3333Z" fill="white"/>
<path d="M13.3333 9.33337L14.9333 8.13345L14.3334 7.33337H13.3333V9.33337ZM8.66663 9.33337V7.33337H4.66699L7.06654 10.5333L8.66663 9.33337ZM14.1733 16.6767L15.6828 17.9888L16.7427 16.7694L15.7734 15.4768L14.1733 16.6767ZM8.96663 22.6667L7.45716 21.3546L4.57823 24.6667H8.96663V22.6667ZM10.7333 22.6667V24.6667H11.6448L12.2428 23.9788L10.7333 22.6667ZM14.992 17.7674L16.5919 16.5673L15.1066 14.5869L13.4825 16.4553L14.992 17.7674ZM18.6666 22.6667L17.0667 23.8667L17.6667 24.6667H18.6666V22.6667ZM23.3333 22.6667V24.6667H27.3332L24.9333 21.4668L23.3333 22.6667ZM17.5946 15.0147L16.0852 13.7026L15.0252 14.922L15.9946 16.2147L17.5946 15.0147ZM22.5333 9.33337L24.0427 10.6455L26.9219 7.33337H22.5333V9.33337ZM20.7666 9.33337V7.33337H19.8552L19.2572 8.02124L20.7666 9.33337ZM16.776 13.924L15.1759 15.124L16.6612 17.1045L18.2854 15.2362L16.776 13.924ZM19.3333 21.3334L17.7333 22.5334L18.3333 23.3334H19.3333V21.3334ZM11.3333 10.6667V8.66671H7.33329L9.73329 11.8667L11.3333 10.6667ZM12.6666 10.6667L14.2666 9.46671L13.6666 8.66671H12.6666V10.6667ZM20.6666 21.3334V23.3334H24.6666L22.2666 20.1334L20.6666 21.3334ZM13.3333 7.33337H8.66663V11.3334H13.3333V7.33337ZM7.06654 10.5333L12.5732 17.8766L15.7734 15.4768L10.2667 8.13349L7.06654 10.5333ZM12.6638 15.3646L7.45716 21.3546L10.4761 23.9788L15.6828 17.9888L12.6638 15.3646ZM8.96663 24.6667H10.7333V20.6667H8.96663V24.6667ZM12.2428 23.9788L16.5014 19.0794L13.4825 16.4553L9.22383 21.3546L12.2428 23.9788ZM13.392 18.9674L17.0667 23.8667L20.2666 21.4667L16.5919 16.5673L13.392 18.9674ZM18.6666 24.6667H23.3333V20.6667H18.6666V24.6667ZM24.9333 21.4668L19.1947 13.8148L15.9946 16.2147L21.7333 23.8667L24.9333 21.4668ZM19.1041 16.3268L24.0427 10.6455L21.0239 8.02126L16.0852 13.7026L19.1041 16.3268ZM22.5333 7.33337H20.7666V11.3334H22.5333V7.33337ZM19.2572 8.02124L15.2666 12.6119L18.2854 15.2362L22.276 10.6455L19.2572 8.02124ZM18.376 12.7241L14.9333 8.13345L11.7332 10.5333L15.1759 15.124L18.376 12.7241ZM20.9333 20.1334L12.9333 9.46671L9.73329 11.8667L17.7333 22.5334L20.9333 20.1334ZM11.3333 12.6667H12.6666V8.66671H11.3333V12.6667ZM11.0666 11.8667L19.0666 22.5334L22.2666 20.1334L14.2666 9.46671L11.0666 11.8667ZM20.6666 19.3334H19.3333V23.3334H20.6666V19.3334Z" fill="white" mask="url(#path-2-inside-1_206_177)"/>
</svg>
