<svg width="32" height="32" viewBox="0 0 32 32" fill="none" xmlns="http://www.w3.org/2000/svg">
<circle cx="16" cy="16" r="16" fill="#222222"/>
<path d="M22.1036 10.325C20.6071 8.825 18.6143 8 16.4964 8C12.125 8 8.56786 11.5571 8.56786 15.9286C8.56786 17.325 8.93214 18.6893 9.625 19.8929L8.5 24L12.7036 22.8964C13.8607 23.5286 15.1643 23.8607 16.4929 23.8607H16.4964C20.8643 23.8607 24.5 20.3036 24.5 15.9321C24.5 13.8143 23.6 11.825 22.1036 10.325V10.325ZM16.4964 22.525C15.3107 22.525 14.15 22.2071 13.1393 21.6071L12.9 21.4643L10.4071 22.1179L11.0714 19.6857L10.9143 19.4357C10.2536 18.3857 9.90714 17.175 9.90714 15.9286C9.90714 12.2964 12.8643 9.33929 16.5 9.33929C18.2607 9.33929 19.9143 10.025 21.1571 11.2714C22.4 12.5179 23.1643 14.1714 23.1607 15.9321C23.1607 19.5679 20.1286 22.525 16.4964 22.525V22.525ZM20.1107 17.5893C19.9143 17.4893 18.9393 17.0107 18.7571 16.9464C18.575 16.8786 18.4429 16.8464 18.3107 17.0464C18.1786 17.2464 17.8 17.6893 17.6821 17.825C17.5679 17.9571 17.45 17.975 17.2536 17.875C16.0893 17.2929 15.325 16.8357 14.5571 15.5179C14.3536 15.1679 14.7607 15.1929 15.1393 14.4357C15.2036 14.3036 15.1714 14.1893 15.1214 14.0893C15.0714 13.9893 14.675 13.0143 14.5107 12.6179C14.35 12.2321 14.1857 12.2857 14.0643 12.2786C13.95 12.2714 13.8179 12.2714 13.6857 12.2714C13.5536 12.2714 13.3393 12.3214 13.1571 12.5179C12.975 12.7179 12.4643 13.1964 12.4643 14.1714C12.4643 15.1464 13.175 16.0893 13.2714 16.2214C13.3714 16.3536 14.6679 18.3536 16.6571 19.2143C17.9143 19.7571 18.4071 19.8036 19.0357 19.7107C19.4179 19.6536 20.2071 19.2321 20.3714 18.7679C20.5357 18.3036 20.5357 17.9071 20.4857 17.825C20.4393 17.7357 20.3071 17.6857 20.1107 17.5893Z" fill="#25D366"/>
</svg>
