<svg width="30" height="30" viewBox="0 0 30 30" fill="none" xmlns="http://www.w3.org/2000/svg">
<path fill-rule="evenodd" clip-rule="evenodd" d="M15 30C23.2843 30 30 23.2843 30 15C30 6.71573 23.2843 0 15 0C6.71573 0 0 6.71573 0 15C0 23.2843 6.71573 30 15 30Z" fill="#EAC81F"/>
<path fill-rule="evenodd" clip-rule="evenodd" d="M18.1621 10.7142C19.7076 10.7142 20.5169 10.9274 20.9552 11.45C21.3956 11.975 21.4285 12.779 21.4285 13.9457V16.0543C21.4285 17.3913 21.2183 18.1635 20.7255 18.6364C20.2451 19.0977 19.5024 19.2858 18.1621 19.2858H12.5519C9.79079 19.2858 9.28564 18.1976 9.28564 16.0543V13.9457C9.28564 12.8394 9.28564 12.0401 9.71139 11.4976C10.1481 10.9412 10.971 10.7142 12.5519 10.7142H18.1621ZM14.5338 16.6264L17.0814 15.291C17.2108 15.2232 17.2919 15.0888 17.2917 14.9423C17.2915 14.7959 17.2101 14.6617 17.0805 14.5942L14.5329 13.2674C14.4115 13.2042 14.266 13.209 14.149 13.2803C14.0321 13.3516 13.9607 13.4788 13.9607 13.616V16.2782C13.9607 16.4156 14.0323 16.543 14.1495 16.6143C14.2117 16.652 14.282 16.6711 14.3524 16.6711C14.4146 16.6711 14.4769 16.6563 14.5338 16.6264Z" fill="#121212"/>
</svg>
